<svg xmlns="http://www.w3.org/2000/svg" viewBox="0 0 431.76 106.18"><defs><style>.cls-1{fill:#4fa44e;}.cls-2{fill:#1b1b1b;}</style></defs><title>Ресурс 3</title><g id="Слой_2" data-name="Слой 2"><g id="Слой_1-2" data-name="Слой 1"><path class="cls-1" d="M399.05,90.63v10.53H421a5.85,5.85,0,0,0,4.3-1.45,5.65,5.65,0,0,0,0-7.6A5.77,5.77,0,0,0,421,90.63Zm26.47-9.07A4.94,4.94,0,0,0,424.33,78a6,6,0,0,0-4.51-1.49H399.05v9.6h20.77c2.13,0,3.6-.37,4.44-1.12A4.33,4.33,0,0,0,425.52,81.56Zm6.24,14.29q0,5-2.73,7.4t-8,2.43H394V72h25.83q5.16,0,7.92,2.47t2.75,7.1q0,5.09-3.78,6.51a7.06,7.06,0,0,1,3.44,2.46A8.65,8.65,0,0,1,431.76,95.85Zm-73.2,5.8q11.61,0,13.68-1.72t2.06-11q0-9.36-2-11.1t-13.7-1.72q-11.65,0-13.7,1.72t-2,11.1q0,9.26,2.07,11T358.56,101.65Zm0,4.53q-10.47,0-14.66-1.36a7.53,7.53,0,0,1-5.31-5.14c-.52-1.74-.79-5.33-.79-10.77s.25-9.13.74-10.77a7.63,7.63,0,0,1,5.36-5.22q4.23-1.36,14.66-1.37c7,0,11.86.45,14.64,1.35a7.64,7.64,0,0,1,5.33,5.19c.53,1.74.79,5.34.79,10.82s-.25,9.08-.74,10.72a7.52,7.52,0,0,1-5.31,5.19Q369.09,106.17,358.56,106.18Zm-68-17.29q0,9.21,2,11t12.08,1.77q9.38,0,11.44-1c1.6-.82,2.41-3,2.41-6.64h5q0,8-3.34,10.1t-15.55,2.1q-12.43,0-15.74-3t-3.29-14.31q0-11.46,3.24-14.41t15.79-3q12.3,0,15.6,2t3.29,10.11h-5q0-5.42-2.22-6.52t-11.63-1.11q-10.17,0-12.1,1.75T290.57,88.89Zm-29.32,4.79L252.1,76h-1.28l-9.15,17.66ZM255.35,72l17.71,33.69H267.4l-4-7.47h-24l-3.93,7.47h-5.66L247.53,72Zm-77.43,33.69V72h5V85.66h5L208.32,72h8.6L193.31,87.88l25.14,17.8h-8.26L188,90.19h-5v15.49ZM130.2,89h22.23a4.3,4.3,0,0,0,3.44-1.48,7.14,7.14,0,0,0,1.28-4.72A7.4,7.4,0,0,0,155.9,78a4.32,4.32,0,0,0-3.52-1.51H130.2Zm-5,16.72V72h27.45a9.2,9.2,0,0,1,7,2.66c1.69,1.78,2.53,4.49,2.53,8.11s-.86,6.32-2.58,8.08a9.52,9.52,0,0,1-7.16,2.64H130.2v12.2ZM6,105.68V72h5V85.66h5L36.44,72h8.61L21.44,87.88l25.13,17.8H38.31L16.08,90.19h-5v15.49Z"/><path class="cls-1" d="M418.27,40.22l-9.15-17.66h-1.28l-9.15,17.66Zm-5.9-21.7,17.7,33.7h-5.65l-4-7.48h-24l-3.94,7.48h-5.65l17.7-33.7ZM323,52.22V18.52h5V32.2h5l20.37-13.68H362L338.42,34.41l25.14,17.81H355.3l-22.24-15.5h-5v15.5Zm-28.25-33.7h-7.33L258.58,48.09V18.52h-5v33.7h7.58L289.77,23V52.22h5Zm-100.21,17h22.24A4.3,4.3,0,0,0,220.25,34a7.17,7.17,0,0,0,1.28-4.71,7.4,7.4,0,0,0-1.25-4.74,4.32,4.32,0,0,0-3.52-1.51H194.57Zm-5,16.73V18.52H217a9.18,9.18,0,0,1,7,2.67q2.53,2.67,2.54,8.11c0,3.62-.86,6.32-2.58,8.08A9.57,9.57,0,0,1,216.81,40H194.57v12.2Zm-31.69-9.79a4.93,4.93,0,0,0-1.57-3.89,5.79,5.79,0,0,0-3.93-1.37H130.18V47.69h22.14a5.86,5.86,0,0,0,4-1.37A4.85,4.85,0,0,0,157.87,42.43ZM125.16,18.52h34.33v4.53H130.18v9.59h22.23c3.15,0,5.57.66,7.28,2q3.19,2.46,3.2,7.82c0,3.61-1,6.21-3.15,7.82q-2.61,2-7.33,2H125.16ZM29.37,26.94h13c2.3,0,3.92.55,4.87,1.67S48.7,31.84,48.7,35s-.49,5.42-1.45,6.72-2.59,1.94-4.85,1.94h-13m-5-16.67V43.61H11.26C9,43.61,7.44,43,6.47,41.67S5,38.13,5,35s.47-5.19,1.42-6.32S9,26.94,11.26,26.94Zm0-4.53H11.26c-3.93,0-6.69.71-8.26,2.12Q0,27.23,0,35T3,45.68c1.67,1.67,4.43,2.51,8.26,2.51H24.35v4h5v-4h13c3.84,0,6.59-.84,8.27-2.51q3-3,3-10.73t-3-10.38c-1.58-1.44-4.33-2.16-8.27-2.16h-13V18.52h-5Z"/><path class="cls-2" d="M108.91,99.53H49.81L81.2,34.42l31.29,65.11ZM57,95h48.32L81.2,44.82Z"/><path class="cls-2" d="M108.91,65.11H49.81L81.2,0l31.29,65.11ZM57,60.59h48.32L81.2,10.4Z"/></g></g></svg>